#define JDJ_WIFI_20_width 13
#define JDJ_WIFI_20_height 12
static unsigned char JDJ_WIFI_20_bits[] = {
   0xf0, 0x01, 0x0c, 0x06, 0x06, 0x0c, 0x03, 0x18, 0x01, 0x10, 0x03, 0x18,
   0x06, 0x0c, 0x0c, 0x06, 0xf8, 0x03, 0xf0, 0x01, 0xe0, 0x00, 0x40, 0x00 };
