#define JDJ_NORMAL_signal_width 13
#define JDJ_NORMAL_signal_height 16
static unsigned char JDJ_NORMAL_signal_bits[] = {
   0x00, 0x08, 0x00, 0x0c, 0x00, 0x0a, 0x00, 0x09, 0x80, 0x09, 0xc0, 0x09,
   0xe0, 0x09, 0xf0, 0x09, 0xf8, 0x09, 0xfc, 0x09, 0xfe, 0x09, 0xff, 0x0f,
   0x00, 0x00, 0x00, 0x00, 0x00, 0x00, 0x00, 0x00 };
