#define JDJ_SIGNAL_80_width 12
#define JDJ_SIGNAL_80_height 12
static unsigned char JDJ_SIGNAL_80_bits[] = {
   0x00, 0x08, 0x00, 0x0c, 0x00, 0x0a, 0x00, 0x09, 0x80, 0x09, 0xc0, 0x09,
   0xe0, 0x09, 0xf0, 0x09, 0xf8, 0x09, 0xfc, 0x09, 0xfe, 0x09, 0xff, 0x0f };
