#define JDJ_NO_signal_width 12
#define JDJ_NO_signal_height 12
static unsigned char JDJ_NO_signal_bits[] = {
   0x00, 0x08, 0x00, 0x0c, 0x00, 0x0a, 0x00, 0x09, 0x80, 0x08, 0x40, 0x08,
   0x20, 0x08, 0x10, 0x08, 0x08, 0x08, 0x04, 0x08, 0x02, 0x08, 0xff, 0x0f };
