#define JDJ_Bluetooth_Connected_width 9
#define JDJ_Bluetooth_Connected_height 13
static unsigned char JDJ_Bluetooth_Connected_bits[] = {
   0x30, 0x00, 0x50, 0x00, 0x90, 0x00, 0x11, 0x01, 0x92, 0x00, 0x54, 0x00,
   0x39, 0x01, 0x54, 0x00, 0x92, 0x00, 0x11, 0x01, 0x90, 0x00, 0x50, 0x00,
   0x30, 0x00 };
