#define JDJ_WIFI_50_width 13
#define JDJ_WIFI_50_height 12
static unsigned char JDJ_WIFI_50_bits[] = {
   0xf0, 0x01, 0x0c, 0x06, 0x06, 0x0c, 0x03, 0x18, 0xff, 0x1f, 0xff, 0x1f,
   0xfe, 0x0f, 0xfc, 0x07, 0xf8, 0x03, 0xf0, 0x01, 0xe0, 0x00, 0x40, 0x00 };
