#define JDJ_G_width 12
#define JDJ_G_height 12
static unsigned char JDJ_G_bits[] = {
   0x03, 0x0c, 0x01, 0x08, 0xf0, 0x01, 0x18, 0x01, 0x0c, 0x00, 0x04, 0x00,
   0xc4, 0x03, 0x04, 0x02, 0x08, 0x02, 0x18, 0x01, 0xe1, 0x08, 0x03, 0x0c };
