#define JDJ_NORMAL_signal_R_width 13
#define JDJ_NORMAL_signal_R_height 16
static unsigned char JDJ_NORMAL_signal_R_bits[] = {
   0x0f, 0x08, 0x09, 0x0c, 0x0d, 0x0a, 0x03, 0x09, 0x85, 0x09, 0xc9, 0x09,
   0xe0, 0x09, 0xf0, 0x09, 0xf8, 0x09, 0xfc, 0x09, 0xfe, 0x09, 0xff, 0x0f,
   0x00, 0x00, 0x00, 0x00, 0x00, 0x00, 0x00, 0x00 };
