#define JDJ_LOW_signal_width 13
#define JDJ_LOW_signal_height 16
static unsigned char JDJ_LOW_signal_bits[] = {
   0x00, 0x08, 0x00, 0x0c, 0x00, 0x0a, 0x00, 0x09, 0x80, 0x08, 0x40, 0x08,
   0x20, 0x08, 0x10, 0x08, 0x08, 0x08, 0x0c, 0x08, 0x0e, 0x08, 0xff, 0x0f,
   0x00, 0x00, 0x00, 0x00, 0x00, 0x00, 0x00, 0x00 };
