#define JDJ_BATTERY_80_width 9
#define JDJ_BATTERY_80_height 12
static unsigned char JDJ_BATTERY_80_bits[] = {
   0x38, 0x00, 0xfe, 0x00, 0x82, 0x00, 0xfe, 0x00, 0xfe, 0x00, 0xfe, 0x00,
   0xfe, 0x00, 0xfe, 0x00, 0xfe, 0x00, 0xfe, 0x00, 0xfe, 0x00, 0xfe, 0x00 };
