#define sc_telegram_width 35
#define sc_telegram_height 35
static unsigned char sc_telegram_bits[] = {
   0x00, 0x00, 0x00, 0x00, 0x00, 0x00, 0x00, 0x00, 0x00, 0x00, 0x00, 0x00,
   0x00, 0x00, 0x00, 0x00, 0x00, 0x00, 0x00, 0x00, 0x00, 0x00, 0x00, 0x00,
   0x00, 0x00, 0x00, 0x00, 0x00, 0x00, 0x00, 0x00, 0x00, 0x00, 0x00, 0x00,
   0x00, 0x00, 0x00, 0x00, 0x00, 0x00, 0x00, 0x00, 0x00, 0x00, 0x00, 0x00,
   0x04, 0x00, 0x00, 0x00, 0x80, 0x0f, 0x00, 0x00, 0x00, 0xf0, 0x06, 0x00,
   0x00, 0x00, 0x7c, 0x07, 0x00, 0x00, 0x00, 0x9f, 0x07, 0x00, 0x00, 0xe0,
   0xcf, 0x07, 0x00, 0x00, 0xfc, 0xe3, 0x03, 0x00, 0x00, 0xff, 0xf1, 0x07,
   0x00, 0xc0, 0x7f, 0xfc, 0x03, 0x00, 0x00, 0x3f, 0xfc, 0x03, 0x00, 0x00,
   0x08, 0xff, 0x03, 0x00, 0x00, 0x90, 0xff, 0x01, 0x00, 0x00, 0x90, 0xff,
   0x01, 0x00, 0x00, 0xc0, 0xff, 0x01, 0x00, 0x00, 0xc0, 0xff, 0x01, 0x00,
   0x00, 0xe0, 0xf8, 0x00, 0x00, 0x00, 0x40, 0xe0, 0x00, 0x00, 0x00, 0x00,
   0xc0, 0x00, 0x00, 0x00, 0x00, 0x00, 0x00, 0x00, 0x00, 0x00, 0x00, 0x00,
   0x00, 0x00, 0x00, 0x00, 0x00, 0x00, 0x00, 0x00, 0x00, 0x00, 0x00, 0x00,
   0x00, 0x00, 0x00, 0x00, 0x00, 0x00, 0x00, 0x00, 0x00, 0x00, 0x00, 0x00,
   0x00, 0x00, 0x00, 0x00, 0x00, 0x00, 0x00 };
