#define JDJ_WIFI_50_width 19
#define JDJ_WIFI_50_height 16
static unsigned char JDJ_WIFI_50_bits[] = {
   0x00, 0x00, 0x00, 0xc0, 0x1f, 0x00, 0x20, 0x20, 0x00, 0x10, 0x40, 0x00,
   0x08, 0x80, 0x00, 0x04, 0x00, 0x01, 0xfc, 0xff, 0x01, 0xf8, 0xff, 0x00,
   0xf0, 0x7f, 0x00, 0xe0, 0x3f, 0x00, 0xc0, 0x1f, 0x00, 0x80, 0x0f, 0x00,
   0x00, 0x07, 0x00, 0x00, 0x02, 0x00, 0x00, 0x00, 0x00, 0x00, 0x00, 0x00 };
