#define JDJ_SIGNAL_50R_width 12
#define JDJ_SIGNAL_50R_height 12
static unsigned char JDJ_SIGNAL_50R_bits[] = {
   0x0f, 0x08, 0x09, 0x0c, 0x0d, 0x0a, 0x03, 0x09, 0x85, 0x08, 0x49, 0x08,
   0x60, 0x08, 0x70, 0x08, 0x78, 0x08, 0x7c, 0x08, 0x7e, 0x08, 0xff, 0x0f };
