#define JDJ_BATTERY_Broke_width 9
#define JDJ_BATTERY_Broke_height 12
static unsigned char JDJ_BATTERY_Broke_bits[] = {
   0x38, 0x00, 0xfe, 0x00, 0x82, 0x00, 0x82, 0x00, 0xc6, 0x00, 0xaa, 0x00,
   0x92, 0x00, 0xaa, 0x00, 0xc6, 0x00, 0x82, 0x00, 0x82, 0x00, 0xfe, 0x00 };
