#define JDJ_SIGNAL_50_width 12
#define JDJ_SIGNAL_50_height 12
static unsigned char JDJ_SIGNAL_50_bits[] = {
   0x00, 0x08, 0x00, 0x0c, 0x00, 0x0a, 0x00, 0x09, 0x80, 0x08, 0x40, 0x08,
   0x60, 0x08, 0x70, 0x08, 0x78, 0x08, 0x7c, 0x08, 0x7e, 0x08, 0xff, 0x0f };
