#define JDJ_NAV_Icon_width 13
#define JDJ_NAV_Icon_height 13
static unsigned char JDJ_NAV_Icon_bits[] = {
   0x00, 0x00, 0x00, 0x08, 0x00, 0x0e, 0x80, 0x07, 0xe0, 0x07, 0xf8, 0x03,
   0xfe, 0x03, 0xc0, 0x01, 0xc0, 0x01, 0xc0, 0x00, 0xc0, 0x00, 0x40, 0x00,
   0x00, 0x00 };
