#define JDJ_BATTERY_Charging_width 9
#define JDJ_BATTERY_Charging_height 12
static unsigned char JDJ_BATTERY_Charging_bits[] = {
   0x38, 0x00, 0xfe, 0x00, 0xc6, 0x00, 0x92, 0x00, 0xba, 0x00, 0x92, 0x00,
   0x82, 0x00, 0x82, 0x00, 0xba, 0x00, 0x82, 0x00, 0xc6, 0x00, 0xfe, 0x00 };
