#define JDJ_SIGNAL_100R_width 12
#define JDJ_SIGNAL_100R_height 12
static unsigned char JDJ_SIGNAL_100R_bits[] = {
   0x0f, 0x08, 0x09, 0x0c, 0x0d, 0x0e, 0x03, 0x0f, 0x85, 0x0f, 0xc9, 0x0f,
   0xe0, 0x0f, 0xf0, 0x0f, 0xf8, 0x0f, 0xfc, 0x0f, 0xfe, 0x0f, 0xff, 0x0f };
