#define JDJ_BATTERY_100_width 9
#define JDJ_BATTERY_100_height 12
static unsigned char JDJ_BATTERY_100_bits[] = {
   0x38, 0x00, 0xfe, 0x00, 0xfe, 0x00, 0xfe, 0x00, 0xfe, 0x00, 0xfe, 0x00,
   0xfe, 0x00, 0xfe, 0x00, 0xfe, 0x00, 0xfe, 0x00, 0xfe, 0x00, 0xfe, 0x00 };
