#define JDJ_BATTERY_Full_width 19
#define JDJ_BATTERY_Full_height 12
static unsigned char JDJ_BATTERY_Full_bits[] = {
   0x00, 0x07, 0x00, 0xc0, 0x1f, 0x00, 0xc0, 0x1f, 0x00, 0xc0, 0x1f, 0x00,
   0xc0, 0x1f, 0x00, 0xc0, 0x1f, 0x00, 0xc0, 0x1f, 0x00, 0xc0, 0x1f, 0x00,
   0xc0, 0x1f, 0x00, 0xc0, 0x1f, 0x00, 0xc0, 0x1f, 0x00, 0xc0, 0x1f, 0x00 };
