#define JDJ_SIGNAL_20_width 12
#define JDJ_SIGNAL_20_height 12
static unsigned char JDJ_SIGNAL_20_bits[] = {
   0x00, 0x08, 0x00, 0x0c, 0x00, 0x0a, 0x00, 0x09, 0x80, 0x08, 0x40, 0x08,
   0x20, 0x08, 0x10, 0x08, 0x08, 0x08, 0x0c, 0x08, 0x0e, 0x08, 0xff, 0x0f };
