#define JDJ_BATTERY_50_width 9
#define JDJ_BATTERY_50_height 12
static unsigned char JDJ_BATTERY_50_bits[] = {
   0x38, 0x00, 0xfe, 0x00, 0x82, 0x00, 0x82, 0x00, 0x82, 0x00, 0x82, 0x00,
   0xfe, 0x00, 0xfe, 0x00, 0xfe, 0x00, 0xfe, 0x00, 0xfe, 0x00, 0xfe, 0x00 };
