#define JDJ_WIFI_connected_no_internet_access_width 13
#define JDJ_WIFI_connected_no_internet_access_height 12
static unsigned char JDJ_WIFI_connected_no_internet_access_bits[] = {
   0xf0, 0x01, 0x0c, 0x06, 0x06, 0x0c, 0x03, 0x18, 0x01, 0x12, 0x03, 0x1a,
   0x06, 0x0a, 0x0c, 0x02, 0x18, 0x02, 0xb0, 0x02, 0xe0, 0x00, 0x40, 0x02 };
