#define JDJ_BATTERY_80_width 19
#define JDJ_BATTERY_80_height 12
static unsigned char JDJ_BATTERY_80_bits[] = {
   0x00, 0x07, 0x00, 0xc0, 0x1f, 0x00, 0x40, 0x10, 0x00, 0xc0, 0x1f, 0x00,
   0xc0, 0x1f, 0x00, 0xc0, 0x1f, 0x00, 0xc0, 0x1f, 0x00, 0xc0, 0x1f, 0x00,
   0xc0, 0x1f, 0x00, 0xc0, 0x1f, 0x00, 0xc0, 0x1f, 0x00, 0xc0, 0x1f, 0x00 };
