#define Robot_width 20
#define Robot_height 20
static unsigned char Robot_bits[] = {
   0x1c, 0xc0, 0x01, 0x14, 0x40, 0x01, 0xfe, 0xff, 0x03, 0x02, 0x00, 0x02,
   0x02, 0x00, 0x02, 0xfa, 0xf8, 0x02, 0x8a, 0x88, 0x02, 0xaa, 0xa8, 0x02,
   0x8a, 0x88, 0x02, 0xfa, 0xf8, 0x02, 0x02, 0x00, 0x02, 0x02, 0x00, 0x02,
   0xfa, 0xff, 0x02, 0xaa, 0xaa, 0x02, 0xfa, 0xff, 0x02, 0xaa, 0xaa, 0x02,
   0xfa, 0xff, 0x02, 0x02, 0x00, 0x02, 0xfe, 0xff, 0x03, 0x00, 0x00, 0x00 };
