#define snapchat_width 30
#define snapchat_height 30
static unsigned char snapchat_bits[] = {
   0x00, 0xc0, 0x00, 0x00, 0x00, 0xfc, 0x0f, 0x00, 0x00, 0xff, 0x3f, 0x00,
   0xc0, 0xff, 0xff, 0x00, 0xe0, 0xff, 0xff, 0x01, 0xf0, 0x1f, 0xfe, 0x03,
   0xf8, 0x07, 0xf8, 0x07, 0xfc, 0x03, 0xf0, 0x0f, 0xfc, 0x03, 0xf0, 0x0f,
   0xfe, 0x01, 0xe0, 0x1f, 0xfe, 0x01, 0xe0, 0x1f, 0xfe, 0x01, 0xe0, 0x1f,
   0xfe, 0x01, 0xe0, 0x1f, 0x7f, 0x00, 0x80, 0x3f, 0x7f, 0x00, 0x80, 0x3f,
   0xff, 0x01, 0xe0, 0x3f, 0xff, 0x01, 0xe0, 0x3f, 0xfe, 0x00, 0xc0, 0x1f,
   0xfe, 0x00, 0xc0, 0x1f, 0x3e, 0x00, 0x00, 0x1f, 0x1e, 0x00, 0x00, 0x1e,
   0x1c, 0x00, 0x00, 0x0e, 0x7c, 0x00, 0x80, 0x0f, 0xf8, 0x07, 0xf8, 0x07,
   0xf0, 0x1f, 0xfe, 0x03, 0xe0, 0xff, 0xff, 0x01, 0xc0, 0xff, 0xff, 0x00,
   0x80, 0xff, 0x7f, 0x00, 0x00, 0xfe, 0x1f, 0x00, 0x00, 0xf0, 0x03, 0x00 };
