#define snapchat_width 32
#define snapchat_height 32
static unsigned char snapchat_bits[] = {
   0x00, 0x00, 0x00, 0x00, 0x00, 0x00, 0x00, 0x00, 0x00, 0xe0, 0x07, 0x00,
   0x00, 0x18, 0x18, 0x00, 0x00, 0x04, 0x20, 0x00, 0x00, 0x02, 0x40, 0x00,
   0x00, 0x03, 0xc0, 0x00, 0x00, 0x01, 0x80, 0x00, 0x00, 0x31, 0x8c, 0x00,
   0x80, 0x31, 0x8c, 0x01, 0x80, 0x31, 0x8c, 0x01, 0x00, 0x01, 0x80, 0x00,
   0x00, 0x31, 0x84, 0x00, 0xf0, 0xe1, 0x87, 0x0f, 0x10, 0x00, 0x00, 0x08,
   0x60, 0x00, 0x00, 0x06, 0xc0, 0x00, 0x00, 0x03, 0x80, 0x01, 0x80, 0x01,
   0x80, 0x00, 0x00, 0x01, 0xc0, 0x00, 0x00, 0x03, 0x60, 0x00, 0x00, 0x06,
   0x3c, 0x00, 0x00, 0x3c, 0x06, 0x00, 0x00, 0x60, 0x02, 0x00, 0x00, 0x40,
   0x1c, 0x00, 0x00, 0x38, 0x30, 0x00, 0x00, 0x0c, 0xe0, 0x07, 0xe0, 0x07,
   0xc0, 0x0c, 0x30, 0x03, 0x00, 0x30, 0x0c, 0x00, 0x00, 0xe0, 0x07, 0x00,
   0x00, 0x00, 0x00, 0x00, 0x00, 0x00, 0x00, 0x00 };
