#define T_Rex_error_offline_width 60
#define T_Rex_error_offline_height 35
static unsigned char T_Rex_error_offline_bits[] = {
   0x00, 0x00, 0x00, 0x00, 0x00, 0x00, 0x00, 0x00, 0x00, 0x00, 0x00, 0x00,
   0x00, 0x00, 0x00, 0x00, 0x00, 0x00, 0x00, 0x00, 0x00, 0x00, 0x00, 0x00,
   0x00, 0x00, 0x00, 0x00, 0x00, 0x00, 0x00, 0x00, 0x00, 0x00, 0x00, 0x00,
   0x00, 0x00, 0x00, 0x00, 0x00, 0x00, 0x80, 0xff, 0x01, 0x00, 0x00, 0x00,
   0x00, 0x00, 0xe0, 0xff, 0x03, 0x00, 0x00, 0x00, 0x00, 0x00, 0x60, 0xfe,
   0x03, 0x00, 0x00, 0x00, 0x00, 0x00, 0x60, 0xfe, 0x03, 0x00, 0x00, 0x00,
   0x00, 0x00, 0xe0, 0xff, 0x03, 0x00, 0x00, 0x00, 0x00, 0x00, 0xe0, 0xff,
   0x03, 0x00, 0x00, 0x00, 0x00, 0x00, 0xe0, 0xff, 0x03, 0x00, 0x00, 0x00,
   0x00, 0x00, 0xe0, 0xff, 0x03, 0x00, 0x00, 0x00, 0x00, 0x00, 0xe0, 0x0f,
   0x00, 0x00, 0x00, 0x00, 0x00, 0x00, 0xe0, 0xff, 0x00, 0x00, 0x00, 0x00,
   0x00, 0x00, 0xe0, 0x03, 0x00, 0x00, 0x00, 0x00, 0x80, 0x00, 0xf0, 0x03,
   0x00, 0x00, 0x00, 0x00, 0x80, 0x00, 0xfc, 0x03, 0x00, 0x00, 0x00, 0x00,
   0x80, 0x00, 0xff, 0x1f, 0x00, 0x00, 0x00, 0x00, 0x80, 0x83, 0xff, 0x1f,
   0x00, 0x00, 0x00, 0x00, 0x80, 0xc7, 0xff, 0x13, 0x00, 0x00, 0x00, 0x00,
   0x80, 0xff, 0xff, 0x03, 0x00, 0x00, 0x00, 0x00, 0x80, 0xff, 0xff, 0x03,
   0x00, 0x00, 0x00, 0x00, 0x80, 0xff, 0xff, 0x03, 0x00, 0x00, 0x00, 0x00,
   0x00, 0xff, 0xff, 0x01, 0x00, 0x00, 0x00, 0x00, 0x00, 0xfe, 0xff, 0x01,
   0x00, 0x00, 0x00, 0x00, 0x00, 0xfc, 0xff, 0x00, 0x00, 0x00, 0x00, 0x00,
   0x00, 0xf8, 0x7f, 0x00, 0x00, 0x00, 0x00, 0x00, 0xfc, 0xf1, 0x3f, 0xfe,
   0xff, 0xff, 0xff, 0x0f, 0x00, 0xc0, 0x37, 0x00, 0x00, 0x00, 0x00, 0x00,
   0x00, 0xc0, 0x33, 0x00, 0x00, 0x00, 0x00, 0x00, 0x80, 0xc3, 0x20, 0x08,
   0x00, 0x0f, 0x00, 0x00, 0x00, 0x40, 0x20, 0x00, 0x00, 0x00, 0x00, 0x03,
   0x3c, 0x40, 0x20, 0x00, 0x1e, 0x00, 0x00, 0x00, 0x00, 0xc0, 0x60, 0x00,
   0x00, 0x00, 0x00, 0x00 };
