#define T_Rex_error_offline_Gameover_width 60
#define T_Rex_error_offline_Gameover_height 35
static unsigned char T_Rex_error_offline_Gameover_bits[] = {
   0x00, 0x00, 0x00, 0x00, 0x00, 0x00, 0x00, 0x00, 0x00, 0x00, 0x00, 0x00,
   0x00, 0x00, 0x00, 0x00, 0x00, 0x00, 0x00, 0x00, 0x00, 0x00, 0x00, 0x00,
   0x00, 0x00, 0x00, 0x00, 0x00, 0x00, 0x00, 0x00, 0x00, 0x00, 0x00, 0x00,
   0x00, 0x00, 0x00, 0x00, 0x00, 0x00, 0x00, 0x00, 0x00, 0x00, 0x00, 0x00,
   0xf8, 0x10, 0x22, 0x0f, 0x1c, 0x91, 0xe7, 0x01, 0x08, 0x28, 0x36, 0x01,
   0x22, 0x91, 0x20, 0x02, 0x0c, 0x44, 0x2a, 0x01, 0x22, 0x91, 0x20, 0x02,
   0xc4, 0x44, 0x22, 0x03, 0x22, 0x91, 0xe1, 0x01, 0x8c, 0x7c, 0x22, 0x01,
   0x22, 0x9b, 0x20, 0x03, 0x98, 0x44, 0x22, 0x01, 0x22, 0x8e, 0x20, 0x02,
   0xf0, 0x44, 0x22, 0x0f, 0x1c, 0x84, 0x27, 0x02, 0x00, 0x00, 0x00, 0x00,
   0x00, 0x00, 0x00, 0x00, 0x00, 0x00, 0x00, 0x00, 0x00, 0x00, 0x00, 0x00,
   0x00, 0x00, 0x00, 0x00, 0x00, 0x00, 0x00, 0x00, 0x80, 0xff, 0x07, 0x00,
   0x00, 0x00, 0x00, 0x00, 0x80, 0x00, 0x04, 0x00, 0x00, 0x00, 0x00, 0x00,
   0x80, 0x08, 0x04, 0x00, 0x00, 0x00, 0x00, 0x00, 0x80, 0x18, 0x04, 0x00,
   0x00, 0x00, 0x00, 0x00, 0x80, 0x38, 0x04, 0x00, 0x00, 0x00, 0x00, 0x00,
   0x80, 0x78, 0x04, 0x00, 0x00, 0x00, 0x03, 0x00, 0x80, 0x38, 0x04, 0x00,
   0x00, 0x80, 0x07, 0x00, 0x80, 0x18, 0x04, 0x00, 0x00, 0xa0, 0x27, 0x00,
   0x80, 0x08, 0x04, 0x00, 0x00, 0xe0, 0x27, 0x00, 0x80, 0x00, 0x04, 0x00,
   0x00, 0x80, 0x27, 0x00, 0x80, 0xff, 0x07, 0x00, 0x00, 0x80, 0x3f, 0x00,
   0x00, 0x00, 0x00, 0x00, 0x00, 0x80, 0x07, 0x00, 0xfc, 0xff, 0xff, 0xff,
   0xff, 0xff, 0xff, 0x0f, 0x00, 0x00, 0x60, 0x00, 0x00, 0x80, 0x07, 0x00,
   0x00, 0x00, 0x20, 0x36, 0x00, 0x00, 0x00, 0x00, 0x80, 0x03, 0x98, 0x0f,
   0x00, 0x0f, 0x00, 0x00, 0x00, 0x00, 0x38, 0x2b, 0x00, 0x00, 0x00, 0x03,
   0x3c, 0x00, 0x88, 0x2f, 0x1e, 0x00, 0x00, 0x00, 0x00, 0x00, 0x10, 0x0f,
   0x00, 0x00, 0x00, 0x00 };
