#define JDJ_WIFI_0_width 19
#define JDJ_WIFI_0_height 16
static unsigned char JDJ_WIFI_0_bits[] = {
   0x00, 0x00, 0x00, 0xc0, 0x1f, 0x00, 0x20, 0x20, 0x00, 0x10, 0x40, 0x00,
   0x08, 0x80, 0x00, 0x04, 0x00, 0x01, 0x04, 0x00, 0x01, 0x08, 0x80, 0x00,
   0x10, 0x40, 0x00, 0x20, 0x20, 0x00, 0x40, 0x10, 0x00, 0x80, 0x08, 0x00,
   0x00, 0x05, 0x00, 0x00, 0x02, 0x00, 0x00, 0x00, 0x00, 0x00, 0x00, 0x00 };
