#define JDJ_NO_signal_X_width 13
#define JDJ_NO_signal_X_height 16
static unsigned char JDJ_NO_signal_X_bits[] = {
   0x11, 0x08, 0x0a, 0x0c, 0x04, 0x0a, 0x0a, 0x09, 0x91, 0x08, 0x40, 0x08,
   0x20, 0x08, 0x10, 0x08, 0x08, 0x08, 0x04, 0x08, 0x02, 0x08, 0xff, 0x0f,
   0x00, 0x00, 0x00, 0x00, 0x00, 0x00, 0x00, 0x00 };
