#define nav_width 15
#define nav_height 16
static unsigned char nav_bits[] = {
   0x00, 0x00, 0x00, 0x20, 0x00, 0x38, 0x00, 0x1e, 0x80, 0x1f, 0xe0, 0x0f,
   0xf8, 0x0f, 0x00, 0x07, 0x00, 0x07, 0x00, 0x03, 0x00, 0x03, 0x00, 0x01,
   0x00, 0x00, 0x00, 0x00, 0x00, 0x00, 0x00, 0x00 };
